<?xml version="1.0" encoding="utf-8"?>
<!-- Generator: Adobe Illustrator 22.1.0, SVG Export Plug-In . SVG Version: 6.00 Build 0)  -->
<svg version="1.1" baseProfile="tiny" id="Livello_1"
	 xmlns="http://www.w3.org/2000/svg" xmlns:xlink="http://www.w3.org/1999/xlink" x="0px" y="0px" viewBox="0 0 600 160"
	 xml:space="preserve">
<title>logo</title>
<desc>Created with Sketch.</desc>
<g id="logo">
	<g id="Logo" transform="translate(18.000000, 11.000000)">
		<g id="Js" transform="translate(484.298246, 50.000000)">
			<path id="Color-border" fill="#2E5BDC" d="M41.6,0.3C18.7,0.3,0.1,19,0.1,42c0,23,18.6,41.7,41.5,41.7C64.5,83.6,83.1,65,83.1,42
				C83.1,19,64.5,0.3,41.6,0.3 M41.6,5.3c20.1,0,36.5,16.4,36.5,36.7c0,20.2-16.4,36.7-36.5,36.7S5.1,62.2,5.1,42
				C5.1,21.7,21.5,5.3,41.6,5.3"/>
			<path fill="#5A82F1" d="M18.3,46.2c0.7,0.6,1.9,0.2,2.7-0.7c0.9-1,1-2.3,0.3-2.9c-0.7-0.6-1.9-0.2-2.7,0.8
				C17.7,44.4,17.6,45.7,18.3,46.2L18.3,46.2z M16.3,48.1c-0.2,0-0.5,0.3-0.2,0.5c0.4,0.1,0.5,0.5,0.5,0.9c-0.3,2-2.6,4.2-3.5,5
				c-0.2,0.2,0.1,0.8,0.3,0.6c0.5-0.4,1.5-1.3,2.4-2.4c-1.4,3.3-4.1,7.5-5.1,9c-4,6-10.2,11.4-14.4,11.4c-3.4,0-6.2-2.4-6.8-6
				c0-0.4-0.5-0.5-0.4,0.1c0.8,4.9,4.3,6.8,8.6,6.8c4.7,0,10.2-3.6,13.3-7.3c4.9-6,8.1-12.9,7.3-16.8C17.8,48.3,16.8,48,16.3,48.1
				L16.3,48.1z M46.5,61.2c1.3-0.3,2.4-1.1,2.4-2.3c0-0.1-0.2-0.1-0.2,0c0,0.7-0.8,1.3-1.6,1.4c-2,0.3-6-2.2-7.9-4.8
				c2,0.8,6.1-0.4,8.1-1.9c1.8-1.4,2.5-2.9,2.6-4.1c0.2-2-1.9-3.3-4.8-2c-1.9,0.8-4.1,2.6-6.4,5.9C41.1,49,45.9,42,50.7,37.4
				c5.8-5.5,9.1-4.4,3.9,1.4c-2.1,2.4-6.2,5.5-9,6.8c-0.9,0.4-0.4,0.9,0.2,0.6c3-1.4,6.9-4.3,9.3-6.6c7-7.2,1.2-12.6-6.6-5
				c-5.3,5.2-8.7,10.6-11.7,17.7c-1,1.3-1.8,2.4-2.7,3.3c-0.1,0.1-0.2,0.2-0.3,0.3c-2.6,2.4-6.6,5.6-9.2,5.6
				c-1.8,0.1-2.6-1.4-2.2-3.3c0.5-2.9,3.3-6.4,5.7-7.5c3.1-1.5,5,1.4,0.9,3.8c-1.6,0.9-3.4,1.3-4.2,1.3c-0.9,0-0.8,0.4,0,0.4
				c1.3,0.1,3.3-0.5,4.6-1.2c4.2-2.2,4.5-6.2-0.1-6.3c-5-0.2-10.9,4.3-10.9,10c0,2.6,2,4,4.6,4c4.4-0.1,8.3-3.6,11.5-6.8
				c0.5-0.4,0.9-0.9,1.4-1.3c-1.1,3-1.7,5.9-1.4,8c0.2,1.5,1,2.2,1.6,2.8c0.1,0.1,0.4,0,0.2-0.3c-0.9-1.2-0.7-4.7,0.6-8.2
				C37.9,59.3,42.1,62.2,46.5,61.2L46.5,61.2z M41.2,51.2c5.1-4.9,7.2-0.5,3.9,2.2c-1.7,1.4-5.1,2.4-6.1,1.8L38.8,55
				c-0.1-0.2-0.3-0.5-0.4-0.7C39.2,53.2,40.2,52.2,41.2,51.2L41.2,51.2z M69.8,45.7c2.1,0.2,1.2-2.4-0.9-1.8
				c-0.9,0.3-1.8,2.2-2.5,3.9c-2.1,3.3-5.5,7.8-7.9,10.1c-2.1,2-4.1,2.5-1.7-1.2c1-1.5,2.2-3,3-4.6c1.7-4-1.9-5.7-4.8-3.3
				c-1.7,1.4-4,4.3-5.8,5.8c-0.5,0.4-0.4,1,0.1,0.6c1.4-1.2,3.9-4.1,6.1-5.7c1.8-1.5,2.5-0.5,1.5,0.7C55.4,52,52.9,55,52.2,57
				c-0.9,2.9,0.2,4.2,2,4.2c2.5,0,6.1-4.1,8.6-7.3c0.8-1.1,1.7-2.4,2.5-3.6c-2.1,4.4-4.4,8.9-7.2,13c-3.9,5.7-8.9,10-13.5,10
				c-3.4,0-6.3-2.4-6.9-6c0-0.4-0.5-0.5-0.4,0.1c0.8,4.9,4.3,6.8,8.6,6.8c4.7,0,9.2-2.9,12.4-6.5c6.4-7.2,7.2-15.3,9.1-19.9
				C68.3,45.7,69.1,45.6,69.8,45.7L69.8,45.7z M95.8,38.7c0.9-1.7,0.9-3-1.3-3c-1.6,0.1-4.6,1.3-6.1,2.4c-0.3,0.3-0.2,0.5,0.2,0.3
				c0.3-0.1,0.6-0.3,0.9-0.4c1.6-0.9,0.9,1,0.6,1.7c-1.9,3.5-5.2,8.4-6.9,10.8c-0.8,1.2-1.7,2.3-2.7,3.4c-1.7,1.7-5,4.7-7.5,5.7
				c-8.1,3.3,2.2-11.5,3.1-12.8c1.9-2.6,6.2-7.1,7.5-9.3c0.9-1.7,0.9-3-1.3-3c-1.6,0.1-4.6,1.3-6.1,2.4c-0.3,0.3-0.2,0.5,0.2,0.3
				c0.3-0.1,0.6-0.3,0.9-0.4c1.6-0.9,0.9,1,0.6,1.7c-1.9,3.5-5.2,8.4-6.9,10.8c-1.4,2-3.2,4.1-4.5,5.2c-0.5,0.5-0.2,0.9,0.3,0.5
				c0.5-0.3,1.2-1.1,2-2c-1.5,3.1-2.7,7.6,1.2,8.1c3.3,0.5,7.3-3.1,9.8-5.8l0.9-1l0.2-0.2c-1.5,3.1-2.7,7.6,1.2,8.1
				c4.3,0.6,9.5-5.5,11.6-7.7c0.4-0.4,0.3-1.2-0.4-0.4c-1.2,1.3-5.3,5.3-8.2,6.5C77,64.1,87.4,49.3,88.3,48
				C90.2,45.4,94.5,40.9,95.8,38.7L95.8,38.7z"/>
		</g>
		<g id="A" transform="translate(390.292398, 50.000000)">
			<g id="Group-7" transform="translate(41.000000, 0.000000)">
				<g id="Combined-Shape">
				</g>
				<image width="43" height="84" id="Color-border_3_" xlink:href="DD472FF043A10A1.png"  transform="matrix(1 0 0 1 -0.2924 0)">
				</image>
			</g>
			<path id="Color-border_4_" fill="#2E5BDC" d="M41.5,0C18.6,0,0,18.7,0,41.7c0,23,18.6,41.7,41.5,41.7C64.5,83.3,83,64.7,83,41.7
				C83,18.7,64.5,0,41.5,0 M41.5,5c20.1,0,36.5,16.4,36.5,36.7c0,20.2-16.4,36.7-36.5,36.7S5,61.9,5,41.7C5,21.4,21.4,5,41.5,5"/>
		</g>
		<g id="B" transform="translate(295.625731, 0.000000)">
			<g id="Group-6">
				<g id="Combined-Shape_1_">
				</g>
				<image width="42" height="133" id="Color-border_5_" xlink:href="DD472FF043A10A3.png"  transform="matrix(1 0 0 1 0.3743 0)">
				</image>
			</g>
			<path id="Color-border_6_" fill="#2E5BDC" d="M42.6,50.3C19.7,50.3,1.1,69,1.1,92c0,23,18.6,41.7,41.5,41.7
				c22.9,0,41.5-18.7,41.5-41.7C84.1,69,65.5,50.3,42.6,50.3 M42.6,55.3c20.1,0,36.5,16.4,36.5,36.7c0,20.2-16.4,36.7-36.5,36.7
				S6.1,112.2,6.1,92C6.1,71.7,22.5,55.3,42.6,55.3"/>
		</g>
		<g id="R" transform="translate(199.298246, 50.000000)">
			<g id="Group-4" transform="translate(0.000000, 0.000000)">
				<g id="Combined-Shape_2_">
				</g>
				<image width="84" height="42" id="Color-border_7_" xlink:href="DD472FF043A10A6.png"  transform="matrix(1 0 0 1 -0.2982 0)">
				</image>
			</g>
			<path id="Color-border_8_" fill="#2E5BDC" d="M0,83.3h41.5V0H0V83.3z M5,78.3h31.6V5H5V78.3z"/>
		</g>
		<g id="A_1_" transform="translate(94.666667, 50.000000)">
			<g id="Group-3" transform="translate(41.000000, 0.000000)">
				<g id="Combined-Shape_3_">
				</g>
				<image width="42" height="84" id="Color-border_9_" xlink:href="DD472FF043A10A7.png"  transform="matrix(1 0 0 1 0.3333 0)">
				</image>
			</g>
			<path id="Color-border_10_" fill="#2E5BDC" d="M41.9,0C19,0,0.4,18.7,0.4,41.7c0,23,18.6,41.7,41.5,41.7
				c22.9,0,41.5-18.7,41.5-41.7C83.4,18.7,64.8,0,41.9,0 M41.9,5C62,5,78.4,21.4,78.4,41.7c0,20.2-16.4,36.7-36.5,36.7
				S5.4,61.9,5.4,41.7C5.4,21.4,21.7,5,41.9,5"/>
		</g>
		<g id="B_1_">
			<g id="Group">
				<g id="Combined-Shape_4_">
				</g>
				<image width="42" height="133" id="Color-border_11_" xlink:href="DD472FF043A10A2.png" >
				</image>
			</g>
			<path id="Color-border_12_" fill="#2E5BDC" d="M0,91.7c0,23,18.6,41.7,41.5,41.7c22.9,0,41.5-18.7,41.5-41.7
				C83,68.7,64.5,50,41.5,50C18.6,50,0,68.7,0,91.7z M41.5,55c20.1,0,36.5,16.4,36.5,36.7c0,20.2-16.4,36.7-36.5,36.7
				S5,111.9,5,91.7C5,71.4,21.4,55,41.5,55"/>
		</g>
	</g>
</g>
</svg>
