<?xml version="1.0" encoding="utf-8"?>
<!-- Generator: Adobe Illustrator 22.1.0, SVG Export Plug-In . SVG Version: 6.00 Build 0)  -->
<svg version="1.1" id="Livello_1" xmlns="http://www.w3.org/2000/svg" xmlns:xlink="http://www.w3.org/1999/xlink" x="0px" y="0px"
	 viewBox="0 0 600 160" style="enable-background:new 0 0 600 160;" xml:space="preserve">
<style type="text/css">
	.st0{fill:#2E5BDC;}
	.st1{filter:url(#Adobe_OpacityMaskFilter);}
	.st2{fill:#FFFFFF;}
	.st3{mask:url(#mask-2_1_);fill:#2E5BDC;}
	.st4{filter:url(#Adobe_OpacityMaskFilter_1_);}
	.st5{mask:url(#mask-4_1_);fill:#2E5BDC;}
	.st6{filter:url(#Adobe_OpacityMaskFilter_2_);}
	.st7{mask:url(#mask-6_1_);fill:#2E5BDC;}
	.st8{filter:url(#Adobe_OpacityMaskFilter_3_);}
	.st9{mask:url(#mask-8_1_);fill:#2E5BDC;}
	.st10{filter:url(#Adobe_OpacityMaskFilter_4_);}
	.st11{mask:url(#mask-10_1_);fill:#2E5BDC;}
	.st12{fill:#5A82F1;}
</style>
<title>logo</title>
<desc>Created with Sketch.</desc>
<g id="logo">
	<g id="Logo" transform="translate(18.000000, 11.000000)">
		<g id="Js" transform="translate(484.298246, 50.000000)">
			<path id="Color-border" class="st0" d="M41.6,0.3C18.7,0.3,0.1,19,0.1,42c0,23,18.6,41.7,41.5,41.7C64.5,83.6,83.1,65,83.1,42
				C83.1,19,64.5,0.3,41.6,0.3 M41.6,5.3c20.1,0,36.5,16.4,36.5,36.7c0,20.2-16.4,36.7-36.5,36.7S5.1,62.2,5.1,42
				C5.1,21.7,21.5,5.3,41.6,5.3"/>
		</g>
		<g id="A" transform="translate(390.292398, 50.000000)">
			<g id="Group-7" transform="translate(41.000000, 0.000000)">
				<g id="Combined-Shape">
				</g>
				<defs>
					<filter id="Adobe_OpacityMaskFilter" filterUnits="userSpaceOnUse" x="0.5" y="0" width="41.5" height="83.3">
						<feColorMatrix  type="matrix" values="1 0 0 0 0  0 1 0 0 0  0 0 1 0 0  0 0 0 1 0"/>
					</filter>
				</defs>
				<mask maskUnits="userSpaceOnUse" x="0.5" y="0" width="41.5" height="83.3" id="mask-2_1_">
					<g class="st1">
						<path id="path-1_1_" class="st2" d="M0.5,81.7c21.1-0.4,38.2-17.8,38.2-39.2c0-21.3-17.1-38.7-38.2-39.2V0H42v83.3H0.5V81.7z"
							/>
					</g>
				</mask>
				<path id="Color-border_3_" class="st3" d="M0.5,83.3H42V0H0.5V83.3z M5.5,78.3h31.6V5H5.5V78.3z"/>
			</g>
			<path id="Color-border_4_" class="st0" d="M41.5,0C18.6,0,0,18.7,0,41.7c0,23,18.6,41.7,41.5,41.7C64.5,83.3,83,64.7,83,41.7
				C83,18.7,64.5,0,41.5,0 M41.5,5c20.1,0,36.5,16.4,36.5,36.7c0,20.2-16.4,36.7-36.5,36.7S5,61.9,5,41.7C5,21.4,21.4,5,41.5,5"/>
		</g>
		<g id="B" transform="translate(295.625731, 0.000000)">
			<g id="Group-6">
				<g id="Combined-Shape_1_">
				</g>
				<defs>
					<filter id="Adobe_OpacityMaskFilter_1_" filterUnits="userSpaceOnUse" x="0.4" y="0" width="42" height="133">
						<feColorMatrix  type="matrix" values="1 0 0 0 0  0 1 0 0 0  0 0 1 0 0  0 0 0 1 0"/>
					</filter>
				</defs>
				<mask maskUnits="userSpaceOnUse" x="0.4" y="0" width="42" height="133" id="mask-4_1_">
					<g class="st4">
						<path id="path-3_1_" class="st2" d="M42.4,52.8c-0.5,0-0.9,0-1.4,0c-21.5,0-39,17.6-39,39.2c0,21.6,17.5,39.2,39,39.2
							c0.5,0,1,0,1.4,0l0,1.9h-42V0h42L42.4,52.8L42.4,52.8z"/>
					</g>
				</mask>
				<path id="Color-border_5_" class="st5" d="M0.4,133h42V0h-42V133z M5.4,128h32V5h-32V128z"/>
			</g>
			<path id="Color-border_6_" class="st0" d="M42.6,50.3C19.7,50.3,1.1,69,1.1,92c0,23,18.6,41.7,41.5,41.7
				c22.9,0,41.5-18.7,41.5-41.7C84.1,69,65.5,50.3,42.6,50.3 M42.6,55.3c20.1,0,36.5,16.4,36.5,36.7c0,20.2-16.4,36.7-36.5,36.7
				S6.1,112.2,6.1,92C6.1,71.7,22.5,55.3,42.6,55.3"/>
		</g>
		<g id="R" transform="translate(199.298246, 50.000000)">
			<g id="Group-4" transform="translate(0.000000, 0.000000)">
				<g id="Combined-Shape_2_">
				</g>
				<defs>
					<filter id="Adobe_OpacityMaskFilter_2_" filterUnits="userSpaceOnUse" x="0" y="0" width="83" height="41.7">
						<feColorMatrix  type="matrix" values="1 0 0 0 0  0 1 0 0 0  0 0 1 0 0  0 0 0 1 0"/>
					</filter>
				</defs>
				<mask maskUnits="userSpaceOnUse" x="0" y="0" width="83" height="41.7" id="mask-6_1_">
					<g class="st6">
						<path id="path-5_1_" class="st2" d="M39,41.7V2.5H27.3C31.8,0.9,36.5,0,41.5,0C64.5,0,83,18.7,83,41.7H39z M2.5,41.7H0
							c0-5,0.9-9.8,2.5-14.2V41.7z"/>
					</g>
				</mask>
				<path id="Color-border_7_" class="st7" d="M41.5,0C18.6,0,0,18.7,0,41.7h83C83,18.7,64.5,0,41.5,0 M41.5,5
					C60,5,75.3,18.8,77.7,36.7H5.3C7.8,18.8,23.1,5,41.5,5"/>
			</g>
			<path id="Color-border_8_" class="st0" d="M0,83.3h41.5V0H0V83.3z M5,78.3h31.6V5H5V78.3z"/>
		</g>
		<g id="A_1_" transform="translate(94.666667, 50.000000)">
			<g id="Group-3" transform="translate(41.000000, 0.000000)">
				<g id="Combined-Shape_3_">
				</g>
				<defs>
					<filter id="Adobe_OpacityMaskFilter_3_" filterUnits="userSpaceOnUse" x="0.5" y="0" width="41.5" height="83.3">
						<feColorMatrix  type="matrix" values="1 0 0 0 0  0 1 0 0 0  0 0 1 0 0  0 0 0 1 0"/>
					</filter>
				</defs>
				<mask maskUnits="userSpaceOnUse" x="0.5" y="0" width="41.5" height="83.3" id="mask-8_1_">
					<g class="st8">
						<path id="path-7_1_" class="st2" d="M0.5,80.8c0.1,0,0.2,0,0.4,0c21.5,0,39-17.6,39-39.2c0-21.6-17.5-39.2-39-39.2
							c-0.1,0-0.2,0-0.4,0V0H42v83.3H0.5V80.8z"/>
					</g>
				</mask>
				<path id="Color-border_9_" class="st9" d="M0.5,83.3H42V0H0.5V83.3z M5.5,78.3h31.6V5H5.5V78.3z"/>
			</g>
			<path id="Color-border_10_" class="st0" d="M41.9,0C19,0,0.4,18.7,0.4,41.7c0,23,18.6,41.7,41.5,41.7c22.9,0,41.5-18.7,41.5-41.7
				C83.4,18.7,64.8,0,41.9,0 M41.9,5C62,5,78.4,21.4,78.4,41.7c0,20.2-16.4,36.7-36.5,36.7S5.4,61.9,5.4,41.7
				C5.4,21.4,21.7,5,41.9,5"/>
		</g>
		<g id="B_1_">
			<g id="Group">
				<g id="Combined-Shape_4_">
				</g>
				<defs>
					<filter id="Adobe_OpacityMaskFilter_4_" filterUnits="userSpaceOnUse" x="0" y="0" width="42" height="133">
						<feColorMatrix  type="matrix" values="1 0 0 0 0  0 1 0 0 0  0 0 1 0 0  0 0 0 1 0"/>
					</filter>
				</defs>
				<mask maskUnits="userSpaceOnUse" x="0" y="0" width="42" height="133" id="mask-10_1_">
					<g class="st10">
						<path id="path-9_1_" class="st2" d="M42,52.5c-0.2,0-0.3,0-0.5,0c-21.5,0-39,17.6-39,39.2c0,21.6,17.5,39.2,39,39.2
							c0.2,0,0.3,0,0.5,0v2.2H0V0h42V52.5z"/>
					</g>
				</mask>
				<path id="Color-border_11_" class="st11" d="M0,133h42V0H0V133z M5,128h32V5H5V128z"/>
			</g>
			<path id="Color-border_12_" class="st0" d="M0,91.7c0,23,18.6,41.7,41.5,41.7c22.9,0,41.5-18.7,41.5-41.7
				C83,68.7,64.5,50,41.5,50C18.6,50,0,68.7,0,91.7z M41.5,55c20.1,0,36.5,16.4,36.5,36.7c0,20.2-16.4,36.7-36.5,36.7
				S5,111.9,5,91.7C5,71.4,21.4,55,41.5,55"/>
		</g>
	</g>
</g>
<path class="st12" d="M520.6,107.2c0.7,0.6,1.9,0.2,2.7-0.7c0.9-1,1-2.3,0.3-2.9c-0.7-0.6-1.9-0.2-2.7,0.8
	C520,105.4,519.9,106.7,520.6,107.2L520.6,107.2z M518.6,109.1c-0.2,0-0.5,0.3-0.2,0.5c0.4,0.1,0.5,0.5,0.5,0.9
	c-0.3,2-2.6,4.2-3.5,5c-0.2,0.2,0.1,0.8,0.3,0.6c0.5-0.4,1.5-1.3,2.4-2.4c-1.4,3.3-4.1,7.5-5.1,9c-4,6-10.2,11.4-14.4,11.4
	c-3.4,0-6.2-2.4-6.8-6c0-0.4-0.5-0.5-0.4,0.1c0.8,4.9,4.3,6.8,8.6,6.8c4.7,0,10.2-3.6,13.3-7.3c4.9-6,8.1-12.9,7.3-16.8
	C520.1,109.3,519.1,109,518.6,109.1L518.6,109.1z M548.8,122.2c1.3-0.3,2.4-1.1,2.4-2.3c0-0.1-0.2-0.1-0.2,0c0,0.7-0.8,1.3-1.6,1.4
	c-2,0.3-6-2.2-7.9-4.8c2,0.8,6.1-0.4,8.1-1.9c1.8-1.4,2.5-2.9,2.6-4.1c0.2-2-1.9-3.3-4.8-2c-1.9,0.8-4.1,2.6-6.4,5.9
	c2.5-4.3,7.3-11.4,12.1-15.9c5.8-5.5,9.1-4.4,3.9,1.4c-2.1,2.4-6.2,5.5-9,6.8c-0.9,0.4-0.4,0.9,0.2,0.6c3-1.4,6.9-4.3,9.3-6.6
	c7-7.2,1.2-12.6-6.6-5c-5.3,5.2-8.7,10.6-11.7,17.7c-1,1.3-1.8,2.4-2.7,3.3c-0.1,0.1-0.2,0.2-0.3,0.3c-2.6,2.4-6.6,5.6-9.2,5.6
	c-1.8,0.1-2.6-1.4-2.2-3.3c0.5-2.9,3.3-6.4,5.7-7.5c3.1-1.5,5,1.4,0.9,3.8c-1.6,0.9-3.4,1.3-4.2,1.3c-0.9,0-0.8,0.4,0,0.4
	c1.3,0.1,3.3-0.5,4.6-1.2c4.2-2.2,4.5-6.2-0.1-6.3c-5-0.2-10.9,4.3-10.9,10c0,2.6,2,4,4.6,4c4.4-0.1,8.3-3.6,11.5-6.8
	c0.5-0.4,0.9-0.9,1.4-1.3c-1.1,3-1.7,5.9-1.4,8c0.2,1.5,1,2.2,1.6,2.8c0.1,0.1,0.4,0,0.2-0.3c-0.9-1.2-0.7-4.7,0.6-8.2
	C540.2,120.3,544.4,123.2,548.8,122.2L548.8,122.2z M543.5,112.2c5.1-4.9,7.2-0.5,3.9,2.2c-1.7,1.4-5.1,2.4-6.1,1.8l-0.2-0.1
	c-0.1-0.2-0.3-0.5-0.4-0.7C541.5,114.2,542.5,113.2,543.5,112.2L543.5,112.2z M572.1,106.7c2.1,0.2,1.2-2.4-0.9-1.8
	c-0.9,0.3-1.8,2.2-2.5,3.9c-2.1,3.3-5.5,7.8-7.9,10.1c-2.1,2-4.1,2.5-1.7-1.2c1-1.5,2.2-3,3-4.6c1.7-4-1.9-5.7-4.8-3.3
	c-1.7,1.4-4,4.3-5.8,5.8c-0.5,0.4-0.4,1,0.1,0.6c1.4-1.2,3.9-4.1,6.1-5.7c1.8-1.5,2.5-0.5,1.5,0.7c-1.4,1.8-3.9,4.8-4.6,6.8
	c-0.9,2.9,0.2,4.2,2,4.2c2.5,0,6.1-4.1,8.6-7.3c0.8-1.1,1.7-2.4,2.5-3.6c-2.1,4.4-4.4,8.9-7.2,13c-3.9,5.7-8.9,10-13.5,10
	c-3.4,0-6.3-2.4-6.9-6c0-0.4-0.5-0.5-0.4,0.1c0.8,4.9,4.3,6.8,8.6,6.8c4.7,0,9.2-2.9,12.4-6.5c6.4-7.2,7.2-15.3,9.1-19.9
	C570.6,106.7,571.4,106.6,572.1,106.7L572.1,106.7z M598.1,99.7c0.9-1.7,0.9-3-1.3-3c-1.6,0.1-4.6,1.3-6.1,2.4
	c-0.3,0.3-0.2,0.5,0.2,0.3c0.3-0.1,0.6-0.3,0.9-0.4c1.6-0.9,0.9,1,0.6,1.7c-1.9,3.5-5.2,8.4-6.9,10.8c-0.8,1.2-1.7,2.3-2.7,3.4
	c-1.7,1.7-5,4.7-7.5,5.7c-8.1,3.3,2.2-11.5,3.1-12.8c1.9-2.6,6.2-7.1,7.5-9.3c0.9-1.7,0.9-3-1.3-3c-1.6,0.1-4.6,1.3-6.1,2.4
	c-0.3,0.3-0.2,0.5,0.2,0.3c0.3-0.1,0.6-0.3,0.9-0.4c1.6-0.9,0.9,1,0.6,1.7c-1.9,3.5-5.2,8.4-6.9,10.8c-1.4,2-3.2,4.1-4.5,5.2
	c-0.5,0.5-0.2,0.9,0.3,0.5c0.5-0.3,1.2-1.1,2-2c-1.5,3.1-2.7,7.6,1.2,8.1c3.3,0.5,7.3-3.1,9.8-5.8l0.9-1l0.2-0.2
	c-1.5,3.1-2.7,7.6,1.2,8.1c4.3,0.6,9.5-5.5,11.6-7.7c0.4-0.4,0.3-1.2-0.4-0.4c-1.2,1.3-5.3,5.3-8.2,6.5c-8.1,3.3,2.2-11.5,3.1-12.8
	C592.5,106.4,596.8,101.9,598.1,99.7L598.1,99.7z"/>
</svg>
